<svg width="697.8" height="104" viewBox="0 0 697.8 104" fill="none" xmlns="http://www.w3.org/2000/svg">
<path d="M7.94367 36.7217C7.94367 36.7217 0 49.1818 0 59.7896C0 83.6278 17.6083 102.63 41.4236 102.991C49.9038 103.053 59.0932 102.991 66.4556 95.4701C39.5246 95.4701 23.056 75.9903 23.056 59.7896C23.056 59.7896 22.6685 47.0601 28.481 37.0312L7.94367 36.7217Z" fill="#2B2830"/>
<path d="M83.312 15.1789C90.6744 15.1789 94.6695 23.4157 96.2931 30.0874H96.4868C98.1104 23.4157 102.106 15.1789 109.468 15.1789H173.017C177.826 15.1789 177.826 13.2503 177.826 7.54237C177.826 2.89302 180.868 0 185.03 0H192.534V15.1789C192.534 28.5445 185.03 29.39 177.439 29.39L162.49 29.4405H118.768C114.118 29.4405 113.847 30.0874 111.987 34.7162C110.449 38.5432 96.4868 75.2185 96.4868 75.2185H96.2931C96.2931 75.2185 82.331 38.5432 80.7932 34.7162C78.9333 30.0874 78.662 29.4405 74.0121 29.4405H30.29L15.3414 29.39C7.75024 29.39 0.245492 28.5445 0.245492 15.1789V0H7.75024C11.6252 0 14.9539 3.47162 14.9539 7.54237C14.9539 13.2503 14.9539 15.1789 19.7626 15.1789H83.312Z" fill="#2B2830"/>
<path d="M70.8707 37.0309C73.5902 37.0309 73.7844 38.4011 74.3672 39.8562L87.5742 73.739C82.3928 83.0194 73.5907 88.3337 62.7542 88.3337C46.3619 88.3336 30.9997 74.9839 30.9998 56.3096C30.9998 49.6757 32.2854 41.3513 37.1997 37.0309H70.8707ZM62.2681 45.8705C56.9958 45.8705 52.7218 50.0585 52.7218 55.7004C52.7218 61.3424 56.9958 65.5303 62.2681 65.5303C67.5403 65.5302 71.8144 61.3423 71.8144 55.7004C71.8144 50.0585 67.5403 45.8706 62.2681 45.8705Z" fill="#2B2830"/>
<path d="M121.715 37.0309C118.996 37.0309 118.802 38.4011 118.219 39.8562L105.012 73.739C110.193 83.0194 118.995 88.3337 129.832 88.3337C146.224 88.3336 161.586 74.9839 161.586 56.3096C161.586 49.6757 160.301 41.3513 155.386 37.0309H121.715ZM130.318 45.8705C135.59 45.8705 139.864 50.0585 139.864 55.7004C139.864 61.3424 135.59 65.5303 130.318 65.5303C125.046 65.5302 120.772 61.3423 120.772 55.7004C120.772 50.0585 125.046 45.8706 130.318 45.8705Z" fill="#2B2830"/>
<path d="M184.642 36.7217C184.642 36.7217 192.586 49.1818 192.586 59.7896C192.586 83.6278 174.978 102.63 151.162 102.991C142.682 103.053 133.493 102.991 126.13 95.4701C153.061 95.4701 169.53 75.9903 169.53 59.7896C169.53 59.7896 169.917 47.0601 164.105 37.0312L184.642 36.7217Z" fill="#2B2830"/>
<path d="M246.344 72.9384L259.122 22.8845H268.377L281.205 72.9384L294.03 22.8845H304.508L287.079 91.1146H275.377L263.773 45.9355L252.171 91.1146H240.567L223.038 22.8845H233.516L246.344 72.9384Z" fill="#2B2830"/>
<path d="M325.02 91.1146H314.836V22.8845H325.02V91.1146Z" fill="#2B2830"/>
<path d="M362.659 21.7629C366.348 21.7629 369.907 22.3486 373.334 23.5183C376.793 24.6553 379.828 26.3275 382.438 28.5362C385.082 30.713 386.977 33.3619 388.119 36.4808L378.474 39.942C377.92 38.35 376.857 36.9699 375.291 35.8003C373.724 34.5984 371.832 33.6552 369.613 32.9729C367.426 32.2906 365.107 31.9477 362.659 31.9477C360.048 31.9153 357.6 32.3381 355.315 33.2154C353.063 34.0601 351.22 35.2316 349.784 36.7262C348.348 38.2207 347.628 39.958 347.628 41.9398C347.628 44.3767 348.299 46.2281 349.638 47.4952C350.976 48.7622 352.77 49.7053 355.022 50.3226C357.307 50.9074 359.852 51.4446 362.659 51.9319C367.164 52.6467 371.325 53.8324 375.144 55.4895C378.996 57.1465 382.081 59.355 384.398 62.1168C386.748 64.8459 387.922 68.2091 387.922 72.2053C387.922 76.2342 386.748 79.777 384.398 82.8312C382.081 85.8528 378.996 88.2071 375.144 89.8966C371.325 91.5537 367.164 92.3823 362.659 92.3823C358.906 92.3822 355.298 91.7994 351.838 90.6298C348.379 89.4601 345.359 87.7857 342.781 85.6089C340.202 83.3996 338.359 80.7821 337.25 77.7607L346.797 74.2031C347.352 75.7623 348.412 77.16 349.978 78.3945C351.577 79.5967 353.472 80.5395 355.659 81.2218C357.878 81.9041 360.211 82.247 362.659 82.247C365.27 82.247 367.719 81.8241 370.004 80.9794C372.321 80.1346 374.181 78.9632 375.584 77.4686C377.02 75.974 377.738 74.2197 377.738 72.2053C377.738 70.1261 376.989 68.42 375.487 67.088C374.019 65.7559 372.124 64.7016 369.807 63.9219C367.522 63.1421 365.14 62.5563 362.659 62.1665C357.862 61.3867 353.553 60.2495 349.734 58.7549C345.948 57.2603 342.946 55.1632 340.727 52.4664C338.54 49.7697 337.446 46.2612 337.446 41.9398C337.446 37.8785 338.603 34.3356 340.92 31.3139C343.27 28.2925 346.356 25.9551 350.175 24.2981C354.026 22.6086 358.188 21.7629 362.659 21.7629Z" fill="#2B2830"/>
<path d="M441.784 33.0226H409.421V49.493H435.467V59.6312H409.421V80.9794H441.784V91.1146H399.236V22.8845H441.784V33.0226Z" fill="#2B2830"/>
<path d="M471.956 40.9614C475.938 40.9615 479.627 41.8872 483.021 43.7391C486.447 45.5908 489.269 48.0773 491.489 51.1959L482.384 56.1204C481.013 54.496 479.414 53.2586 477.587 52.4139C475.759 51.5368 473.881 51.0997 471.956 51.0995C469.28 51.0995 466.846 51.8309 464.659 53.293C462.505 54.7226 460.791 56.623 459.518 58.9945C458.278 61.3334 457.658 63.9001 457.658 66.6937C457.658 69.4555 458.295 72.024 459.568 74.3959C460.841 76.7349 462.555 78.6182 464.709 80.0477C466.896 81.4773 469.312 82.1945 471.956 82.1945C473.979 82.1943 475.906 81.7371 477.733 80.8275C479.561 79.9179 481.111 78.7173 482.384 77.2232L491.489 82.1448C489.269 85.2309 486.447 87.7002 483.021 89.552C479.627 91.4038 475.938 92.3295 471.956 92.3297C467.452 92.3297 463.339 91.1779 459.618 88.8714C455.93 86.5645 452.974 83.476 450.754 79.6095C448.568 75.7109 447.477 71.4045 447.477 66.6937C447.477 63.1205 448.111 59.7906 449.384 56.7045C450.657 53.5855 452.405 50.8568 454.624 48.5175C456.876 46.1458 459.485 44.2913 462.455 42.9592C465.426 41.627 468.594 40.9614 471.956 40.9614Z" fill="#2B2830"/>
<path d="M520.232 40.9614C524.735 40.9615 528.832 42.1158 532.52 44.4225C536.24 46.7294 539.194 49.8323 541.381 53.7312C543.6 57.6297 544.711 61.9505 544.711 66.6937C544.711 70.2348 544.074 73.5498 542.801 76.6362C541.528 79.7228 539.766 82.4542 537.514 84.8261C535.294 87.1652 532.699 88.9998 529.729 90.3319C526.792 91.6639 523.626 92.3295 520.232 92.3297C515.728 92.3297 511.614 91.1779 507.893 88.8714C504.205 86.5645 501.252 83.476 499.032 79.6095C496.845 75.7106 495.752 71.405 495.752 66.6937C495.752 63.1205 496.387 59.7906 497.659 56.7045C498.932 53.5855 500.68 50.8568 502.9 48.5175C505.152 46.1456 507.763 44.2913 510.734 42.9592C513.703 41.6275 516.87 40.9614 520.232 40.9614ZM520.232 51.0995C517.555 51.0995 515.121 51.8137 512.934 53.2434C510.781 54.6729 509.066 56.5734 507.794 58.9448C506.554 61.3163 505.934 63.8999 505.933 66.6937C505.933 69.5855 506.588 72.2025 507.893 74.5419C509.199 76.8808 510.927 78.75 513.081 80.147C515.268 81.5116 517.653 82.1945 520.232 82.1945C522.94 82.1943 525.372 81.4771 527.526 80.0477C529.679 78.6182 531.376 76.7347 532.617 74.3959C533.889 72.024 534.527 69.4555 534.527 66.6937C534.526 63.868 533.874 61.2692 532.57 58.8981C531.297 56.5262 529.58 54.6405 527.426 53.2434C525.272 51.8144 522.874 51.0997 520.232 51.0995Z" fill="#2B2830"/>
<path d="M567.6378571428571 92.26914285714285Q561.4998571428571 92.26914285714285 557.5052857142857 90.27185714285713Q553.5107142857142 88.27457142857142 551.6108571428572 84.9132857142857Q549.711 81.55199999999999 549.711 77.46Q549.711 70.73742857142857 554.8747142857143 66.4992857142857Q560.0384285714285 62.26114285714285 570.6581428571428 62.26114285714285H582.7392857142856Q582.7392857142856 56.80514285714285 580.5471428571428 54.17457142857142Q578.355 51.54399999999999 573.2887142857143 51.54399999999999Q569.6838571428572 51.54399999999999 567.0532857142857 53.151571428571415Q564.4227142857143 54.75914285714285 563.8381428571429 58.07171428571428H551.0749999999999Q551.5621428571428 52.81057142857142 554.5337142857143 48.96214285714285Q557.5052857142857 45.11371428571428 562.3767142857143 42.97028571428571Q567.2481428571429 40.826857142857136 573.3861428571429 40.826857142857136Q583.8109999999999 40.826857142857136 589.8515714285713 45.99057142857142Q595.8921428571429 51.154285714285706 595.8921428571429 60.70228571428571V91.1H584.7852857142857L583.3238571428572 83.598Q581.1804285714286 87.39771428571429 577.3807142857142 89.83342857142857Q573.581 92.26914285714285 567.6378571428571 92.26914285714285ZM570.7555714285714 82.13657142857141Q575.8218571428571 82.13657142857141 578.7447142857143 78.67785714285714Q581.6675714285714 75.21914285714286 582.1547142857142 70.44514285714286V70.34771428571428H572.1195714285714Q567.6378571428571 70.34771428571428 565.5918571428572 72.00399999999999Q563.5458571428571 73.6602857142857 563.5458571428571 76.29085714285713Q563.5458571428571 79.11628571428571 565.5431428571428 80.62642857142856Q567.5404285714285 82.13657142857141 570.7555714285714 82.13657142857141Z" fill="#2B2830"/>
<path d="M625.3711428571429 40.9614C629.3531428571429 40.9615 633.0421428571428 41.8872 636.4361428571428 43.7391C639.8621428571429 45.5908 642.6841428571429 48.0773 644.9041428571429 51.1959L635.7991428571429 56.1204C634.4281428571428 54.496 632.8291428571429 53.2586 631.0021428571429 52.4139C629.1741428571429 51.5368 627.2961428571429 51.0997 625.3711428571429 51.0995C622.6951428571429 51.0995 620.2611428571429 51.8309 618.0741428571429 53.293C615.9201428571429 54.7226 614.2061428571428 56.623 612.9331428571429 58.9945C611.6931428571429 61.3334 611.0731428571429 63.9001 611.0731428571429 66.6937C611.0731428571429 69.4555 611.710142857143 72.024 612.9831428571429 74.3959C614.2561428571429 76.7349 615.970142857143 78.6182 618.1241428571429 80.0477C620.3111428571428 81.4773 622.7271428571429 82.1945 625.3711428571429 82.1945C627.3941428571429 82.1943 629.3211428571428 81.7371 631.1481428571428 80.8275C632.9761428571428 79.9179 634.5261428571429 78.7173 635.7991428571429 77.2232L644.9041428571429 82.1448C642.6841428571429 85.2309 639.8621428571429 87.7002 636.4361428571428 89.552C633.0421428571428 91.4038 629.3531428571429 92.3295 625.3711428571429 92.3297C620.8671428571429 92.3297 616.7541428571428 91.1779 613.0331428571428 88.8714C609.345142857143 86.5645 606.3891428571428 83.476 604.1691428571429 79.6095C601.9831428571429 75.7109 600.8921428571429 71.4045 600.8921428571429 66.6937C600.8921428571429 63.1205 601.5261428571429 59.7906 602.7991428571429 56.7045C604.0721428571428 53.5855 605.8201428571429 50.8568 608.0391428571429 48.5175C610.2911428571429 46.1458 612.9001428571429 44.2913 615.8701428571428 42.9592C618.8411428571428 41.627 622.0091428571429 40.9614 625.3711428571429 40.9614Z" fill="#2B2830"/>
<path d="M649.9041428571429 91.1V20.951428571428565H663.0570000000001V49.30314285714285Q665.3952857142858 45.503428571428564 669.4872857142858 43.165142857142854Q673.5792857142858 40.826857142857136 678.9378571428572 40.826857142857136Q688.0961428571429 40.826857142857136 692.9188571428572 46.52642857142857Q697.7415714285715 52.22599999999999 697.7415714285715 62.943142857142846V91.1H684.686142857143V64.1122857142857Q684.686142857143 58.266571428571424 682.2504285714288 55.100142857142856Q679.8147142857144 51.93371428571428 674.5535714285716 51.93371428571428Q669.5847142857144 51.93371428571428 666.3208571428572 55.39242857142857Q663.0570000000001 58.85114285714285 663.0570000000001 65.08657142857142V91.1Z" fill="#2B2830"/>
</svg>
